<?xml version="1.0" encoding="UTF-8"?><svg id="a" xmlns="http://www.w3.org/2000/svg" width="1460" height="250" viewBox="0 0 1460 250"><g><path d="M230.35,0H0V150.31c0,73.67,32.7,99.69,91.64,99.69H250V0h-19.65Z" fill="#fff"/><g><path d="M0,0V131.01C19.32,78.96,72.84,39.17,127.2,39.17c60.23,0,98.67,48.82,85.87,109.05-9.87,46.42-47.32,86.04-91.54,101.78H250V0H0Z" fill="#ed0000"/><ellipse cx="104.03" cy="148.22" rx="69.12" ry="94.26" fill="#ed0000"/></g></g><g><path d="M1434.2,188.52h-6.29v17.68h-2.45v-17.68h-6.29v-1.86h15.03v1.86Zm23.96,17.68h-2.45v-17.5h-.09l-6.82,17.5h-1.6l-6.81-17.5h-.09v17.5h-2.44v-19.54h4.51l5.64,14.43h.09l5.54-14.43h4.51v19.54Z" fill="#252525"/><path d="M425.61,131.69c0,42.74-24.83,78.84-70.46,78.84s-70.47-36.1-70.47-78.84,24.83-78.84,70.47-78.84,70.46,36.1,70.46,78.84Zm-122.73,0c0,31.77,17.33,63.53,52.27,63.53s52.27-31.76,52.27-63.53-17.33-63.54-52.27-63.54-52.27,31.77-52.27,63.54Z" fill="#252525"/><polygon points="422.36 57.18 442.58 57.18 489.36 188 489.94 188 536.15 57.18 554.92 57.18 499.18 206.19 479.83 206.19 422.36 57.18" fill="#252525"/><path d="M571.75,136.59c.29,26.57,14.15,58.62,49.09,58.62,26.57,0,41.01-15.59,46.78-38.12h18.19c-7.8,33.79-27.43,53.42-64.97,53.42-47.36,0-67.29-36.39-67.29-78.84,0-39.28,19.93-78.84,67.29-78.84s67,41.87,65.55,83.75h-114.65Zm96.46-15.31c-.87-27.43-17.91-53.14-47.36-53.14s-46.21,25.99-49.09,53.14h96.46Z" fill="#252525"/><path d="M873.35,100.79c-.87-22.53-18.19-32.64-38.99-32.64-16.17,0-35.23,6.35-35.23,25.71,0,16.17,18.48,21.95,30.9,25.12l24.26,5.49c20.8,3.18,42.45,15.31,42.45,41.29,0,32.35-32.06,44.77-59.77,44.77-34.66,0-58.34-16.17-61.23-52.56h18.2c1.44,24.55,19.63,37.26,43.89,37.26,17.05,0,40.72-7.51,40.72-28.3,0-17.33-16.18-23.1-32.63-27.15l-23.4-5.2c-23.68-6.35-41.58-14.44-41.58-39.86,0-30.32,29.74-41.87,56.03-41.87,29.74,0,53.42,15.6,54.57,47.94h-18.19Z" fill="#252525"/><path d="M941.39,57.18h30.32v15.31h-30.32v100.5c0,11.85,1.73,18.78,14.73,19.64,5.2,0,10.4-.29,15.59-.86v15.59c-5.48,0-10.68,.58-16.17,.58-24.26,0-32.64-8.08-32.34-33.5V72.48h-17.62v-15.31h17.62V12.42h18.19V57.18Z" fill="#252525"/><path d="M1116.04,131.69c0,42.74-24.84,78.84-70.47,78.84s-70.47-36.1-70.47-78.84,24.84-78.84,70.47-78.84,70.47,36.1,70.47,78.84Zm-122.74,0c0,31.77,17.33,63.53,52.27,63.53s52.27-31.76,52.27-63.53-17.33-63.54-52.27-63.54-52.27,31.77-52.27,63.54Z" fill="#252525"/><path d="M1244.97,103.96c-4.91-22.24-18.48-35.81-42.16-35.81-34.95,0-52.27,31.77-52.27,63.53s17.33,63.53,52.27,63.53c22.52,0,41.01-17.61,43.31-42.45h18.19c-4.91,35.81-28.3,57.76-61.5,57.76-45.63,0-70.47-36.1-70.47-78.84s24.84-78.84,70.47-78.84c31.76,0,56.31,17.04,60.35,51.12h-18.19Z" fill="#252525"/><polygon points="1283.43 0 1301.62 0 1301.62 129.38 1384.22 57.18 1408.47 57.18 1344.94 112.34 1412.8 206.2 1389.99 206.2 1331.08 125.04 1301.62 149.59 1301.62 206.2 1283.43 206.2 1283.43 0" fill="#252525"/><path d="M771.55,55.81c-20.91,2.9-36.64,16.03-44.47,36.31h-.58V57.18h-16.76V206.19h18.2V126.78c0-27.04,17.24-48.99,43.6-52.89v-18.08Z" fill="#252525"/></g></svg>